<svg xmlns="http://www.w3.org/2000/svg" width="34.713" height="34.713" viewBox="0 0 34.713 34.713">
  <g id="BTC_Logo" transform="translate(-0.014 -0.028)">
    <path id="Path_48838" data-name="Path 48838" d="M34.206,21.585A17.352,17.352,0,1,1,21.567.548,17.35,17.35,0,0,1,34.206,21.585Z" transform="translate(0 0)" fill="#f7931a"/>
    <path id="Path_48839" data-name="Path 48839" d="M503.224,357.266c.345-2.31-1.414-3.551-3.818-4.38l.781-3.129-1.905-.475-.761,3.046c-.5-.125-1.014-.243-1.525-.359l.764-3.066-1.9-.475-.779,3.127-3.841-.952-.507,2.034s1.413.324,1.383.344a1.013,1.013,0,0,1,.888,1.108l-2.137,8.571a.692.692,0,0,1-.873.451c.019.028-1.384-.347-1.384-.347l-.946,2.183,3.836.969-.788,3.165,1.9.475.781-3.131c.521.141,1.024.271,1.517.394l-.778,3.116,1.9.475.788-3.159c3.248.614,5.69.367,6.717-2.569.828-2.365-.041-3.729-1.75-4.619a3.039,3.039,0,0,0,2.432-2.8m-4.352,6.1c-.59,2.365-4.571,1.087-5.863.766l1.046-4.193c1.291.322,5.431.96,4.817,3.426m.59-6.136c-.537,2.152-3.852,1.059-4.927.79l.947-3.8c1.076.269,4.539.769,3.979,3.013" transform="translate(-478.2 -342.355)" fill="#fff"/>
  </g>
</svg>
