<svg id="visual" viewBox="0 0 2000 250" width="2000" height="250" xmlns="http://www.w3.org/2000/svg" xmlns:xlink="http://www.w3.org/1999/xlink" version="1.1"><path d="M0 72L18.5 76.2C37 80.3 74 88.7 111 98.5C148 108.3 185 119.7 222 124.3C259 129 296 127 333 120.2C370 113.3 407 101.7 444.2 95.7C481.3 89.7 518.7 89.3 555.8 100.8C593 112.3 630 135.7 667 139C704 142.3 741 125.7 778 113.2C815 100.7 852 92.3 889 104.2C926 116 963 148 1000 162.5C1037 177 1074 174 1111 164.7C1148 155.3 1185 139.7 1222 134.7C1259 129.7 1296 135.3 1333 134.2C1370 133 1407 125 1444.2 112.5C1481.3 100 1518.7 83 1555.8 80.7C1593 78.3 1630 90.7 1667 103.2C1704 115.7 1741 128.3 1778 122.8C1815 117.3 1852 93.7 1889 93.2C1926 92.7 1963 115.3 1981.5 126.7L2000 138L2000 251L1981.5 251C1963 251 1926 251 1889 251C1852 251 1815 251 1778 251C1741 251 1704 251 1667 251C1630 251 1593 251 1555.8 251C1518.7 251 1481.3 251 1444.2 251C1407 251 1370 251 1333 251C1296 251 1259 251 1222 251C1185 251 1148 251 1111 251C1074 251 1037 251 1000 251C963 251 926 251 889 251C852 251 815 251 778 251C741 251 704 251 667 251C630 251 593 251 555.8 251C518.7 251 481.3 251 444.2 251C407 251 370 251 333 251C296 251 259 251 222 251C185 251 148 251 111 251C74 251 37 251 18.5 251L0 251Z" fill="#040434" stroke-linecap="round" stroke-linejoin="miter"></path></svg>