<svg id="epclCUSo05D1" xmlns="http://www.w3.org/2000/svg" xmlns:xlink="http://www.w3.org/1999/xlink" viewBox="0 0 1002.41 360.7" shape-rendering="geometricPrecision" text-rendering="geometricPrecision"><style><![CDATA[#epclCUSo05D3_to {animation: epclCUSo05D3_to__to 3000ms linear infinite normal forwards}@keyframes epclCUSo05D3_to__to { 0% {transform: translate(533.216308px,165.793029px)} 13.333333% {transform: translate(533.216308px,165.793029px)} 40% {transform: translate(543.959144px,176.089985px)} 66.666667% {transform: translate(540.541685px,179.351073px)} 100% {transform: translate(533.216308px,167.429986px)}} #epclCUSo05D4_to {animation: epclCUSo05D4_to__to 3000ms linear infinite normal forwards}@keyframes epclCUSo05D4_to__to { 0% {transform: translate(443.788025px,145.407108px)} 13.333333% {transform: translate(443.788025px,145.407108px)} 40% {transform: translate(440.287224px,163.446762px)} 66.666667% {transform: translate(419.578612px,157.685395px)} 100% {transform: translate(443.134783px,138.788642px)}} #epclCUSo05D5_tr {animation: epclCUSo05D5_tr__tr 3000ms linear infinite normal forwards}@keyframes epclCUSo05D5_tr__tr { 0% {transform: translate(516.34214px,264.050009px) rotate(0deg)} 100% {transform: translate(516.34214px,264.050009px) rotate(315.463895deg)}} #epclCUSo05D6_tr {animation: epclCUSo05D6_tr__tr 3000ms linear infinite normal forwards}@keyframes epclCUSo05D6_tr__tr { 0% {transform: translate(482.729996px,176.090004px) rotate(16.74742deg)} 13.333333% {transform: translate(482.729996px,176.090004px) rotate(16.74742deg)} 40% {transform: translate(482.729996px,176.090004px) rotate(-7.888571deg)} 66.666667% {transform: translate(482.729996px,176.090004px) rotate(41.334461deg)} 100% {transform: translate(482.729996px,176.090004px) rotate(41.334461deg)}} #epclCUSo05D7_tr {animation: epclCUSo05D7_tr__tr 3000ms linear infinite normal forwards}@keyframes epclCUSo05D7_tr__tr { 0% {transform: translate(516.809986px,220.039283px) rotate(-26.064748deg)} 13.333333% {transform: translate(516.809986px,220.039283px) rotate(-26.064748deg)} 40% {transform: translate(516.809986px,220.039283px) rotate(5.651604deg)} 66.666667% {transform: translate(516.809986px,220.039283px) rotate(-37.677841deg)} 100% {transform: translate(516.809986px,220.039283px) rotate(-37.677841deg)}}]]></style><defs><linearGradient id="epclCUSo05D5-fill" x1="-17.69" y1="0" x2="17.69" y2="0" spreadMethod="pad" gradientUnits="userSpaceOnUse" gradientTransform="matrix(1 0 0 1 0 0)"><stop id="epclCUSo05D5-fill-0" offset="4%" stop-color="rgb(37,245,233)"/><stop id="epclCUSo05D5-fill-1" offset="60%" stop-color="rgb(12,13,245)"/><stop id="epclCUSo05D5-fill-2" offset="100%" stop-color="rgb(6,11,47)"/></linearGradient></defs><rect id="epclCUSo05D2" width="1001.18" height="360.7" rx="0" ry="0" transform="matrix(1 0 0 1 0.615 0)" fill="rgb(67,76,244)" stroke="none" stroke-width="1"/><g id="epclCUSo05D3_to" transform="translate(533.216308,165.793029)"><circle id="epclCUSo05D3" r="24.99" transform="translate(0.000012,0.000014)" fill="rgb(249,181,48)" stroke="none" stroke-width="1"/></g><g id="epclCUSo05D4_to" transform="translate(443.788025,145.407108)"><circle id="epclCUSo05D4" r="15.43" transform="translate(-8.126171,6.298919)" fill="rgb(34,168,160)" stroke="none" stroke-width="1"/></g><g id="epclCUSo05D5_tr" transform="translate(516.34214,264.050009) rotate(0)"><circle id="epclCUSo05D5" r="17.69" transform="translate(0.000029,-0.000009)" fill="url(#epclCUSo05D5-fill)" stroke="none" stroke-width="1"/></g><g id="epclCUSo05D6_tr" transform="translate(482.729996,176.090004) rotate(16.74742)"><polygon id="epclCUSo05D6" points="491.55,167.27 515.63,191.36 482.73,200.18 449.83,208.99 458.65,176.09 467.46,143.19 491.55,167.27" transform="translate(-482.729996,-176.090004)" fill="rgb(141,147,249)" stroke="none" stroke-width="1"/></g><g id="epclCUSo05D7_tr" transform="translate(516.809986,220.039283) rotate(-26.064748)"><polygon id="epclCUSo05D7" points="510.12,213.72 526.53,197.79 531.88,219.71 537.23,241.64 515.47,235.64 493.71,229.65 510.12,213.72" transform="translate(-515.469986,-219.714996)" fill="rgb(38,241,233)" stroke="none" stroke-width="1"/></g><polygon id="epclCUSo05D8" points="928.3,114.26 924.06,114.19 926.23,110.62 928.4,107.04 930.47,110.68 932.54,114.32 928.3,114.26" fill="rgb(34,168,160)" stroke="none" stroke-width="1"/><path id="epclCUSo05D9" d="M383.44,268.41C383.44,268.41,398.21,284.75,403.44,291.89C404.958074,294.043544,406.909879,295.855691,409.17,297.21C410.812547,298.23669,412.686398,298.834948,414.62,298.95L437.34,303.95C453.42,307.52,453.99,304.07,455.34,302.32C456.69,300.57,458.13,295.77,447.47,294.04C441.52,293.04,431.94,288.65,424.64,284.93" fill="none" stroke="rgb(37,244,232)" stroke-width="3" stroke-miterlimit="10"/><path id="epclCUSo05D10" d="M408.94,297C408.94,297,415.88,304.59,421.57,308C427.26,311.41,431.99,313.25,435.35,315.17C438.71,317.09,446.72,321.35,442.68,326.74C438.64,332.13,428.37,326.74,424.97,325.15C421.57,323.56,400.32,313.79,387.79,303.25C379.34,296.14,380.95,297.8,380.95,297.8" fill="none" stroke="rgb(37,244,232)" stroke-width="3" stroke-miterlimit="10"/><path id="epclCUSo05D11" d="M355.15,176.25C355.15,176.25,364.24,190.46,366.34,194.07C368.974522,199.118473,370.453545,204.689575,370.67,210.38C370.88,216.52,368.89,248.23,369.6,252.72C370.31,257.21,374.86,272.72,377.5,276.93C380.14,281.14,382.5,298.41,379.25,300.19C376,301.97,370.15,295.92,366.3,290.44C362.45,284.96,341.67,253.93,339.54,245.07C337.41,236.21,294.8,172.07,294.8,172.07L282.8,153.91C282.8,153.91,298.47,132.47,307.74,129.45C317.01,126.43,322.62,124.8,332.21,126.25C332.21,126.25,347.04,148.71,351.54,152.92C356.04,157.13,357.11,157.92,364.11,161.92C371.11,165.92,389.49,177.75,395,186.43C400.51,195.11,409.33,217.43,412.36,223.32C415.39,229.21,421.36,240.69,424.78,242.67C428.2,244.65,430.43,240.18,431.57,234.56C433.32,225.91,441.96,228.64,441.7,231.69C441.44,234.74,442.05,250.69,436.05,253.43C430.86,255.8,422.39,261.49,418.39,257.7C414.39,253.91,407.74,243.18,407.74,243.18L422.66,267.4C423.02,267.98,423.33,268.59,423.66,269.2C424.52,270.83,428.12,275.2,441.73,273.2C458.29,270.7,460.2,275.55,460.92,277.56C461.64,279.57,455.92,283.94,443.52,284.93C431.12,285.92,419.68,287.83,411.14,276.19C402.6,264.55,396.68,256.95,396.68,256.95" fill="none" stroke="rgb(37,244,232)" stroke-width="3" stroke-miterlimit="10"/><polygon id="epclCUSo05D12" points="70.64,249.94 66.4,249.87 68.57,246.3 70.75,242.72 72.81,246.36 74.88,250 70.64,249.94" fill="rgb(34,168,160)" stroke="none" stroke-width="1"/><path id="epclCUSo05D13" d="M66.61,291C66.61,291,66.38,295.5,66.1,297.28C66.008836,297.811724,66.029269,298.356597,66.16,298.88C66.257707,299.251615,66.442855,299.594481,66.7,299.88L69.25,303.88C71.06,306.72,71.64,306.31,72.09,306.25C72.54,306.19,73.44,305.71,72.15,303.91C71.293301,302.462952,70.621395,300.914209,70.15,299.3" fill="none" stroke="rgb(246,162,26)" stroke-width="1" stroke-miterlimit="10"/><path id="epclCUSo05D14" d="M66.17,298.81C66.115114,299.955049,66.192289,301.102611,66.4,302.23C66.72,303.56,67.14,304.5,67.35,305.23C67.56,305.96,68.1,307.77,66.74,307.97C65.38,308.17,64.67,305.89,64.41,305.17C63.35091,302.416657,62.609448,299.551459,62.2,296.63C62,294.38,62,294.86,62,294.86" fill="none" stroke="rgb(246,162,26)" stroke-width="1" stroke-miterlimit="10"/><path id="epclCUSo05D15" d="M75.84,273.58C75.84,273.58,75.1,276.95,74.84,277.78C74.496363,278.897412,73.90501,279.92288,73.11,280.78C72.25,281.7,67.38,286,66.83,286.78C65.875369,288.233778,65.087092,289.790206,64.48,291.42C64.24,292.42,62.09,295.25,61.37,295.04C60.65,294.83,60.67,293.1,60.9,291.75C61.13,290.4,62.62,282.91,63.59,281.32C64.56,279.73,67.69,264.32,67.69,264.32L68.58,259.96C68.58,259.96,73.94,259.12,75.72,260.03C77.307029,260.671722,78.689689,261.732914,79.72,263.1C79.247211,265.295968,78.893363,267.515868,78.66,269.75C78.662893,270.811326,78.838523,271.865105,79.18,272.87C79.62,274.45,80.56,278.82,80.1,280.87C79.64,282.92,77.69,287.42,77.28,288.71C76.87,290,76.07,292.52,76.28,293.3C76.49,294.08,77.45,293.76,78.43,293.11C79.93,292.11,80.79,293.76,80.31,294.16C79.83,294.56,77.61,296.96,76.31,296.49C75.22,296.08,73.17,295.68,73.14,294.55C73.221375,293.322791,73.40874,292.104919,73.7,290.91L72.35,296.57C72.35,296.71,72.28,296.84,72.24,296.97C72.12,297.33,72.01,298.49,74.24,300.16C76.99,302.16,76.57,303.16,76.38,303.57C76.19,303.98,74.74,303.77,72.8,302.12C70.86,300.47,68.93,299.12,69.38,296.17C69.83,293.22,70.07,291.3,70.07,291.3" fill="none" stroke="rgb(246,162,26)" stroke-width="1" stroke-miterlimit="10"/><path id="epclCUSo05D16" d="M594.77,90.9C594.77,90.9,579.58,74.9,574.18,67.9C572.607065,65.787178,570.607049,64.029072,568.31,62.74C566.823202,61.884491,565.175192,61.346504,563.47,61.16C562.8,61.09,562.15,60.99,561.47,60.87L540,56.71C523.84,53.56,523.35,57.02,522,58.81C520.65,60.6,519.37,65.43,530.07,66.88C536.07,67.69,545.74,71.88,553.15,75.4" fill="none" stroke="rgb(37,244,232)" stroke-width="3" stroke-miterlimit="10"/><path id="epclCUSo05D17" d="M568.55,63C568.55,63,561.41,55.59,555.64,52.29C549.87,48.99,545.09,47.29,541.64,45.47C538.19,43.65,530.11,39.59,534.01,34.09C537.91,28.59,548.32,33.77,551.76,35.23C555.2,36.69,576.73,46,589.53,56.17C598.16,63.05,596.53,61.44,596.53,61.44" fill="none" stroke="rgb(37,244,232)" stroke-width="3" stroke-miterlimit="10"/><path id="epclCUSo05D18" d="M625.42,182.29C625.42,182.29,615.97,168.29,613.78,164.76C611.011757,159.780382,609.389028,154.246023,609.03,148.56C608.66,142.43,609.84,110.68,609.03,106.21C608.22,101.74,603.26,86.41,600.52,82.21C597.78,78.01,595,60.87,598.14,59C601.28,57.13,607.35,63,611.34,68.41C615.33,73.82,636.9,104.28,639.26,113.08C641.62,121.88,685.86,185,685.86,185L698.33,202.85C698.33,202.85,683.21,224.64,674,227.89C664.79,231.14,659.25,232.89,649.62,231.72C649.62,231.72,634.22,209.65,629.62,205.55C625.02,201.45,623.93,200.69,616.83,196.92C609.73,193.15,591.05,181.74,585.32,173.21C579.59,164.68,570.2,142.55,567,136.77C563.8,130.99,557.57,119.64,554.09,117.77C550.61,115.9,548.09,115.05,536.57,115.58C525.05,116.11,522.48,112.82,522.66,109.77C522.84,106.72,528.58,104.41,535.03,103.06C541.48,101.71,556.03,98.9,560.09,102.58C564.15,106.26,571.09,116.82,571.09,116.82L554.77,91.82C554.77,91.82,552.84,84.82,536.35,87.75C519.86,90.68,517.82,85.87,517.05,83.88C516.28,81.89,521.87,77.37,534.26,76.06C546.65,74.75,558.02,72.55,566.85,83.97C575.68,95.39,581.85,102.83,581.85,102.83" fill="none" stroke="rgb(37,244,232)" stroke-width="3" stroke-miterlimit="10"/><path id="epclCUSo05D19" d="M934.33,71C934.33,71,934.43,66.87,934.64,65.23C934.713776,64.742453,934.683098,64.244794,934.55,63.77C934.465411,63.460585,934.319149,63.171461,934.12,62.92L933.89,62.62C933.61,62.2,932.89,61.12,931.6,59.22C929.88,56.66,929.35,57.05,928.94,57.12C928.53,57.19,927.72,57.65,928.94,59.25C929.760384,60.558106,930.409043,61.966335,930.87,63.44" fill="none" stroke="rgb(246,162,26)" stroke-width="1" stroke-miterlimit="10"/><path id="epclCUSo05D20" d="M934.55,63.84C934.566414,62.789264,934.469183,61.739834,934.26,60.71C933.93,59.51,933.52,58.66,933.26,57.96C933,57.26,932.51,55.66,933.76,55.45C935.01,55.24,935.7,57.3,935.96,57.95C936.991284,60.447772,937.736041,63.054421,938.18,65.72C938.41,67.72,938.41,67.34,938.41,67.34" fill="none" stroke="rgb(246,162,26)" stroke-width="1" stroke-miterlimit="10"/><path id="epclCUSo05D21" d="M926.28,87.17C926.28,87.17,926.88,84.06,927.06,83.3C927.357163,82.276273,927.876118,81.330545,928.58,80.53C929.34,79.67,933.7,75.62,934.18,74.92C935.024217,73.569061,935.711974,72.126449,936.23,70.62C936.43,69.7,938.33,67.05,938.99,67.23C939.65,67.41,939.68,68.98,939.5,70.23C939.32,71.48,938.13,78.37,937.28,79.85C936.43,81.33,933.93,95.53,933.93,95.53L933.22,99.53C933.22,99.53,928.33,100.42,926.68,99.64C925.233063,99.077107,923.962649,98.138106,923,96.92C923.381785,94.896359,923.652192,92.853285,923.81,90.8C923.779927,89.833241,923.594212,88.877651,923.26,87.97C922.82,86.53,921.86,82.54,922.26,80.65C922.66,78.76,924.32,74.59,924.66,73.41C925,72.23,925.66,69.89,925.47,69.18C925.28,68.47,925.03,68.02,923.47,66.57C921.91,65.12,921.97,64.34,922.4,63.96C922.83,63.58,923.89,64.03,924.92,64.71C925.95,65.39,928.25,66.93,928.3,67.96C928.258333,69.086808,928.117793,70.207781,927.88,71.31L929.03,65.83C929.03,65.83,929.7,64.65,927.13,62.83C924.56,61.01,924.92,60.13,925.13,59.77C925.34,59.41,926.63,59.54,928.44,61.01C930.25,62.48,932.05,63.69,931.71,66.37C931.37,69.05,931.19,70.85,931.19,70.85" fill="none" stroke="rgb(246,162,26)" stroke-width="1" stroke-miterlimit="10"/></svg>