<svg id="eSLUIMBEv631" xmlns="http://www.w3.org/2000/svg" xmlns:xlink="http://www.w3.org/1999/xlink" viewBox="0 0 1266.778 450" shape-rendering="geometricPrecision" text-rendering="geometricPrecision"><style><![CDATA[#eSLUIMBEv634_to {animation: eSLUIMBEv634_to__to 8571.428571428572ms linear infinite normal forwards}@keyframes eSLUIMBEv634_to__to { 0% {transform: translate(291.000016px,304.932999px)} 6.666667% {transform: translate(291.000016px,304.932999px);animation-timing-function: cubic-bezier(0.42,0,0.58,1)} 50% {transform: translate(286.686337px,281.5425px);animation-timing-function: cubic-bezier(0.42,0,0.58,1)} 86.666667% {transform: translate(292.533986px,304.928006px)} 100% {transform: translate(292.533986px,304.928006px)}} #eSLUIMBEv6329_to {animation: eSLUIMBEv6329_to__to 8571.428571428572ms linear infinite normal forwards}@keyframes eSLUIMBEv6329_to__to { 0% {transform: translate(1113.478455px,481.959503px)} 22.666667% {transform: translate(1113.478455px,481.959503px);animation-timing-function: cubic-bezier(0.42,0,0.58,1)} 63% {transform: translate(1114.255492px,504.27818px);animation-timing-function: cubic-bezier(0.42,0,0.58,1)} 90% {transform: translate(1114.255492px,479.9635px)} 100% {transform: translate(1114.255492px,479.9635px)}}]]></style><g id="eSLUIMBEv632" transform="matrix(1 0 0 1 -276 -1588.004578)"><g id="eSLUIMBEv633" transform="matrix(1 0 0 1 224.767 1419.56)"><g id="eSLUIMBEv634_to" transform="translate(291.000016,304.932999)"><g id="eSLUIMBEv634" transform="translate(-291.000015,-304.932999)"><path id="eSLUIMBEv635" d="M458.989,388.925L456.634,388.925C456.634,297.597,382.334,223.291,291,223.291C199.666,223.291,125.369,297.6,125.369,388.925L123.011,388.925C123.011,296.293,198.372,220.936,291,220.936C383.628,220.936,458.989,296.293,458.989,388.925" fill="rgb(0,156,220)" stroke="none" stroke-width="1"/><path id="eSLUIMBEv636" d="M424.529,374.75L422.174,374.75C422.174,294.61,356.974,229.409,276.83,229.409C196.686,229.409,131.482,294.61,131.482,374.75L129.127,374.75C129.127,293.306,195.389,227.05,276.827,227.05C358.265,227.05,424.527,293.302,424.527,374.75" transform="matrix(1 0 0 1 14.17 14.175)" fill="rgb(0,156,220)" stroke="none" stroke-width="1"/><path id="eSLUIMBEv637" d="M356.048,346.59L353.693,346.59C353.693,288.58519,306.67081,241.563,248.666,241.563C190.66119,241.563,143.639,288.58519,143.639,346.59L141.284,346.59C141.284,287.284559,189.360559,239.208,248.666,239.208C307.971441,239.208,356.048,287.284559,356.048,346.59" transform="matrix(1 0 0 1 42.337 42.34)" fill="rgb(0,156,220)" stroke="none" stroke-width="1"/><path id="eSLUIMBEv638" d="M390.588,360.8L388.233,360.8C388.232999,291.563652,332.105849,235.436502,262.8695,235.436502C193.633151,235.436502,137.506001,291.563652,137.506,360.8L135.151,360.8C135.151,290.26302,192.33252,233.0815,262.8695,233.0815C333.40648,233.0815,390.588,290.26302,390.588,360.8" transform="matrix(1 0 0 1 28.128 28.13)" fill="rgb(0,156,220)" stroke="none" stroke-width="1"/><rect id="eSLUIMBEv639" width="2.358" height="20.29" rx="0" ry="0" transform="matrix(1 0 0 1 299.853 222.114)" fill="rgb(0,156,220)" stroke="none" stroke-width="1"/><rect id="eSLUIMBEv6310" width="20.29" height="2.358" rx="0" ry="0" transform="matrix(0.5 -0.866 0.866 0.5 357.343 281.441)" fill="rgb(0,156,220)" stroke="none" stroke-width="1"/><rect id="eSLUIMBEv6311" width="2.356" height="20.291" rx="0" ry="0" transform="matrix(0.707107 -0.707107 0.707107 0.707107 185.146 287.779)" fill="rgb(0,156,220)" stroke="none" stroke-width="1"/><path id="eSLUIMBEv6312" d="M168.03,255.193L161.23,236.071L163.449,235.285L170.249,254.407Z" transform="matrix(1 0 0 1 88.559 33.245)" fill="rgb(0,156,220)" stroke="none" stroke-width="1"/></g></g><path id="eSLUIMBEv6313" d="M374.02,442.292C281.385,442.292,206.031,366.935,206.031,274.309L208.379,274.309C208.379,365.641,282.688,439.94,374.02,439.94C465.352,439.94,539.654,365.64,539.654,274.309L542.009,274.309C542.009,366.934,466.648,442.292,374.02,442.292" transform="matrix(1 0 0 1 192.351 123.661)" fill="rgb(0,156,220)" stroke="none" stroke-width="1"/><path id="eSLUIMBEv6314" d="M359.845,422.005C278.398,422.005,212.145,355.746,212.145,274.305L214.5,274.305C214.5,354.445,279.7,419.643,359.841,419.643C439.982,419.643,505.176,354.443,505.176,274.305L507.531,274.305C507.531,355.742,441.282,422.005,359.841,422.005" transform="matrix(1 0 0 1 206.526 123.661)" fill="rgb(0,156,220)" stroke="none" stroke-width="1"/><path id="eSLUIMBEv6315" d="M331.685,381.688C272.406516,381.624623,224.366689,333.587481,224.3,274.309L226.655,274.309C226.833592,332.186463,273.802762,379.010923,331.6805,379.010923C389.558238,379.010923,436.527408,332.186463,436.706,274.309L439.064,274.309C438.997317,333.585141,390.961141,381.621317,331.685,381.688" transform="matrix(1 0 0 1 234.686 123.661)" fill="rgb(0,156,220)" stroke="none" stroke-width="1"/><path id="eSLUIMBEv6316" d="M345.89,402.024C275.387591,401.944096,218.253561,344.811407,218.172,274.309L220.53,274.309C220.53,343.543416,276.655584,399.669,345.89,399.669C415.124416,399.669,471.25,343.543416,471.25,274.309L473.605,274.309C473.522343,344.809781,416.390781,401.941343,345.89,402.024" transform="matrix(1 0 0 1 220.481 123.661)" fill="rgb(0,156,220)" stroke="none" stroke-width="1"/><rect id="eSLUIMBEv6317" width="2.355" height="20.29" rx="0" ry="0" transform="matrix(1 0 0 1 575.231 544.489)" fill="rgb(0,156,220)" stroke="none" stroke-width="1"/><rect id="eSLUIMBEv6318" width="2.356" height="20.29" rx="0" ry="0" transform="matrix(0.865825 -0.500348 0.500348 0.865825 632.711 505.457)" fill="rgb(0,156,220)" stroke="none" stroke-width="1"/><rect id="eSLUIMBEv6319" width="20.286" height="2.357" rx="0" ry="0" transform="matrix(0.706366 -0.707847 0.707847 0.706366 460.523 499.122)" fill="rgb(0,156,220)" stroke="none" stroke-width="1"/><rect id="eSLUIMBEv6320" width="20.291" height="2.356" rx="0" ry="0" transform="matrix(0.333922 -0.942601 0.942601 0.333922 525.175 517.582)" fill="rgb(0,156,220)" stroke="none" stroke-width="1"/><path id="eSLUIMBEv6321" d="M624.169,388.925L621.81,388.925C621.81,297.597,547.51,223.291,456.179,223.291C364.848,223.291,290.545,297.6,290.545,388.925L288.187,388.925C288.187,296.293,363.551,220.936,456.179,220.936C548.807,220.936,624.168,296.293,624.168,388.925" transform="matrix(1 0 0 1 382.701 0)" fill="rgb(0,156,220)" stroke="none" stroke-width="1"/><path id="eSLUIMBEv6322" d="M589.709,374.75L587.35,374.75C587.35,294.61,522.15,229.409,442.009,229.409C361.868,229.409,296.661,294.61,296.661,374.75L294.3,374.75C294.3,293.306,360.566,227.05,442.006,227.05C523.446,227.05,589.706,293.302,589.706,374.75" transform="matrix(1 0 0 1 396.871 14.175)" fill="rgb(0,156,220)" stroke="none" stroke-width="1"/><path id="eSLUIMBEv6323" d="M521.225,346.59L518.863,346.59C518.863,288.586846,471.842154,241.566,413.839,241.566C355.835846,241.566,308.815,288.586846,308.815,346.59L306.46,346.59C306.46,287.284283,354.536783,239.2075,413.8425,239.2075C473.148217,239.2075,521.225,287.284283,521.225,346.59" transform="matrix(1 0 0 1 425.038 42.335)" fill="rgb(0,156,220)" stroke="none" stroke-width="1"/><path id="eSLUIMBEv6324" d="M555.767,360.8L553.409,360.8C553.409,291.563651,497.281849,235.4365,428.0455,235.4365C358.809151,235.4365,302.682,291.563651,302.682,360.8L300.327,360.8C300.327001,290.262193,357.509193,233.080003,428.047,233.080003C498.584807,233.080003,555.766999,290.262193,555.767,360.8" transform="matrix(1 0 0 1 410.829 28.13)" fill="rgb(0,156,220)" stroke="none" stroke-width="1"/><rect id="eSLUIMBEv6325" width="2.355" height="20.29" rx="0" ry="0" transform="matrix(1 0 0 1 847.737 222.114)" fill="rgb(0,156,220)" stroke="none" stroke-width="1"/><rect id="eSLUIMBEv6326" width="20.289" height="2.358" rx="0" ry="0" transform="matrix(0.500514 -0.865729 0.865729 0.500514 905.218 281.436)" fill="rgb(0,156,220)" stroke="none" stroke-width="1"/><rect id="eSLUIMBEv6327" width="2.356" height="20.289" rx="0" ry="0" transform="matrix(0.707181 -0.707033 0.707033 0.707181 733.029 287.778)" fill="rgb(0,156,220)" stroke="none" stroke-width="1"/><rect id="eSLUIMBEv6328" width="2.354" height="20.293" rx="0" ry="0" transform="matrix(0.942 -0.335 0.335 0.942 797.676 269.316)" fill="rgb(0,156,220)" stroke="none" stroke-width="1"/><g id="eSLUIMBEv6329_to" transform="translate(1113.478455,481.959503)"><g id="eSLUIMBEv6329" transform="translate(-1113.478454,-481.959503)"><path id="eSLUIMBEv6330" d="M538.966,442.292C446.331,442.292,370.973,366.935,370.973,274.309L373.321,274.309C373.321,365.641,447.634,439.94,538.965,439.94C630.296,439.94,704.6,365.641,704.6,274.309L706.958,274.309C706.958,366.934,631.597,442.292,538.969,442.292" transform="matrix(1 0 0 1 574.513 123.661)" fill="rgb(0,156,220)" stroke="none" stroke-width="1"/><path id="eSLUIMBEv6331" d="M524.792,422.005C443.341,422.005,377.092,355.746,377.092,274.305L379.447,274.305C379.447,354.445,444.647,419.643,524.791,419.643C604.935,419.643,670.122,354.443,670.122,274.305L672.48,274.305C672.48,355.742,606.231,422.005,524.79,422.005" transform="matrix(1 0 0 1 588.688 123.661)" fill="rgb(0,156,220)" stroke="none" stroke-width="1"/><path id="eSLUIMBEv6332" d="M496.632,381.688C437.353125,381.625174,389.31269,333.587871,389.246,274.309L391.6,274.309C391.778592,332.186463,438.747762,379.010923,496.6255,379.010923C554.503238,379.010923,601.472408,332.186463,601.651,274.309L604.003,274.309C603.939625,333.583391,555.906386,381.620209,496.632,381.688" transform="matrix(1 0 0 1 616.848 123.661)" fill="rgb(0,156,220)" stroke="none" stroke-width="1"/><path id="eSLUIMBEv6333" d="M510.837,402.024C440.333257,401.945749,383.197115,344.812738,383.115,274.309L385.473,274.309C385.472999,319.095815,409.36648,360.480539,448.152999,382.873946C486.939519,405.267354,534.726481,405.267354,573.513001,382.873946C612.29952,360.480539,636.193001,319.095815,636.193,274.309L638.551,274.309C638.467245,344.808935,581.336934,401.939693,510.837,402.024" transform="matrix(1 0 0 1 602.642 123.661)" fill="rgb(0,156,220)" stroke="none" stroke-width="1"/><rect id="eSLUIMBEv6334" width="2.355" height="20.29" rx="0" ry="0" transform="matrix(1 0 0 1 1122.33 544.489)" fill="rgb(0,156,220)" stroke="none" stroke-width="1"/><rect id="eSLUIMBEv6335" width="2.356" height="20.29" rx="0" ry="0" transform="matrix(0.865825 -0.500348 0.500348 0.865825 1179.82 505.457)" fill="rgb(0,156,220)" stroke="none" stroke-width="1"/><path id="eSLUIMBEv6336" d="M391.375,316.488L389.707,314.823L404.053,300.477L405.718,302.145Z" transform="matrix(1 0 0 1 617.914 184.291)" fill="rgb(0,156,220)" stroke="none" stroke-width="1"/><rect id="eSLUIMBEv6337" width="20.292" height="2.357" rx="0" ry="0" transform="matrix(0.333034 -0.942915 0.942915 0.333034 1072.29 517.586)" fill="rgb(0,156,220)" stroke="none" stroke-width="1"/></g></g><path id="eSLUIMBEv6338" d="M164.1,271.3L208.942,271.3Q235.142,271.3,247.836,279.075Q260.53,286.85,260.547,303.3Q260.547,314.116,255.014,321.765C251.520089,326.726052,246.323536,330.228742,240.414,331.606L240.414,332.492Q252.37,335.656,257.738,343.04Q263.106,350.424,263.101,362.205Q263.101,379.705,249.953,389.769Q236.805,399.833,214.127,399.836L164.1,399.836ZM198.832,320.619L209.287,320.619Q216.76,320.619,220.856,317.541Q224.952,314.463,224.939,308.396Q224.939,297.584,208.583,297.586L198.831,297.586ZM198.832,346.027L198.832,373.02L211.052,373.02Q227.307,373.02,227.318,359.301Q227.318,352.888,222.96,349.453Q218.602,346.018,210.349,346.027Z" transform="matrix(1 0 0 1 96.284028 117.63)" fill="rgb(253,146,0)" stroke="none" stroke-width="1"/><path id="eSLUIMBEv6339" d="M389.918,399.836L355.183,399.836L355.183,299.7L323.8,299.7L323.8,271.3L421.222,271.3L421.222,299.7L389.922,299.7Z" transform="matrix(1 0 0 1 465.209 116.694)" fill="rgb(253,146,0)" stroke="none" stroke-width="1"/><path id="eSLUIMBEv6340" d="M503.331,334.416C503.459775,341.937925,501.349376,349.328324,497.268,355.648C492.954621,362.048101,486.874956,367.057397,479.768,370.067Q468.345,375.212,452.954,375.212C445.728683,375.330102,438.509605,374.727117,431.404,373.412C425.137771,372.05009,419.058342,369.938557,413.297,367.123L413.297,336.174C419.883574,339.556539,426.813409,342.224078,433.968,344.131C440.376536,345.930113,446.991419,346.890127,453.647,346.987Q461.389,346.987,464.994,344.304C467.276607,342.754514,468.6289,340.16262,468.594,337.404C468.630934,335.750607,468.126688,334.130416,467.158,332.79C465.859644,331.182865,464.277873,329.827158,462.491,328.79Q459.291,326.765,445.386,320.528Q432.828,314.811,426.536,309.449C422.527619,306.114658,419.339789,301.903109,417.219,297.14C415.08737,291.927507,414.055148,286.330968,414.187,280.701Q414.187,262.939,427.11,253.001Q440.033,243.063,462.631,243.067Q482.572,243.067,503.331,252.298L492.694,279.112Q474.673,270.853,461.561,270.85Q454.805,270.85,451.713,273.225C449.790422,274.568775,448.645949,276.767358,448.648,279.113Q448.648,282.894,452.548,285.883Q456.468,288.883,473.786,296.783Q490.409,304.256,496.869,312.83Q503.329,321.404,503.327,334.413" transform="matrix(1 0 0 1 672.57 51.285)" fill="rgb(253,146,0)" stroke="none" stroke-width="1"/><rect id="eSLUIMBEv6341" width="34.904" height="128.531" rx="0" ry="0" transform="matrix(1 0 0 1 554.709 296.207)" fill="rgb(253,146,0)" stroke="none" stroke-width="1"/></g><g id="eSLUIMBEv6342" transform="matrix(1 0 0 1 1454.78 1713.07)"><circle id="eSLUIMBEv6343" r="27" transform="matrix(1 0 0 1 27 60.931)" fill="rgb(255,235,205)" stroke="none" stroke-width="1"/><path id="eSLUIMBEv6344" d="M30.5,0L61,53L0,53Z" transform="matrix(1 0 0 1 27 -0.069)" fill="rgb(12,13,245)" stroke="none" stroke-width="1"/></g><g id="eSLUIMBEv6345" transform="matrix(-0.259 -0.966 0.966 -0.259 298.843 1875.87)"><circle id="eSLUIMBEv6346" r="27" transform="matrix(1 0 0 1 26.998525 60.669735)" fill="rgb(34,169,161)" stroke="none" stroke-width="1"/><path id="eSLUIMBEv6347" d="M30.5,0L61,53L0,53Z" transform="matrix(1 0 0 1 27 -0.069)" fill="rgb(247,163,26)" stroke="none" stroke-width="1"/></g></g></svg>